<?xml version="1.0" standalone="no"?>
<!DOCTYPE svg PUBLIC "-//W3C//DTD SVG 20010904//EN"
 "http://www.w3.org/TR/2001/REC-SVG-20010904/DTD/svg10.dtd">
<svg version="1.0" xmlns="http://www.w3.org/2000/svg"
 width="1460.000000pt" height="778.000000pt" viewBox="0 0 1460.000000 778.000000"
 preserveAspectRatio="xMidYMid meet">

<g transform="translate(0.000000,778.000000) scale(0.100000,-0.100000)"
fill="#000000" stroke="none">
<path d="M5794 6921 c-17 -11 -36 -34 -43 -52 -12 -34 -15 -186 -5 -238 17
-81 107 -110 165 -52 29 29 29 30 29 155 0 138 -9 170 -51 192 -37 19 -58 18
-95 -5z"/>
<path d="M5240 6693 c-43 -22 -64 -62 -55 -105 8 -34 142 -181 187 -204 44
-23 77 -17 114 20 58 58 45 92 -79 214 -46 45 -89 82 -95 82 -6 0 -16 2 -24 5
-7 3 -29 -3 -48 -12z"/>
<path d="M6363 6694 c-18 -9 -68 -54 -113 -100 -72 -75 -80 -87 -80 -123 0
-29 7 -47 29 -70 54 -58 98 -41 219 82 73 75 82 89 82 121 0 48 -13 72 -50 91
-36 19 -47 19 -87 -1z"/>
<path d="M1483 6389 c-67 -8 -129 -32 -188 -72 l-37 -25 -56 26 c-116 54 -278
39 -389 -35 -95 -63 -120 -133 -67 -187 42 -42 85 -40 154 8 99 68 188 68 287
0 77 -53 106 -51 180 15 102 92 204 103 305 34 29 -20 64 -39 78 -43 57 -16
112 31 112 97 0 44 -42 90 -121 131 -96 51 -158 63 -258 51z"/>
<path d="M5757 6390 c-161 -41 -275 -200 -265 -370 7 -127 84 -235 206 -293
58 -27 78 -32 147 -31 67 0 91 5 143 28 224 102 277 406 100 572 -66 61 -140
94 -225 99 -37 2 -85 0 -106 -5z"/>
<path d="M4979 6111 c-21 -22 -29 -39 -29 -66 0 -27 8 -44 29 -66 l29 -29 137
0 137 0 29 29 c42 42 41 99 -2 135 -30 25 -35 26 -166 26 l-135 0 -29 -29z"/>
<path d="M6381 6119 c-33 -31 -44 -66 -31 -105 19 -56 43 -64 193 -64 130 0
135 1 160 25 29 30 39 68 25 106 -18 51 -44 59 -191 59 -121 0 -135 -2 -156
-21z"/>
<path d="M8485 6129 c-387 -50 -657 -288 -756 -669 -53 -207 -52 -507 2 -725
66 -262 256 -492 485 -588 284 -119 678 -114 929 11 215 107 386 326 451 576
47 183 59 427 29 613 -58 364 -265 627 -578 734 -152 52 -378 71 -562 48z
m413 -294 c147 -43 296 -163 362 -294 122 -242 126 -621 9 -854 -60 -119 -154
-215 -268 -272 -205 -103 -521 -94 -717 20 -85 49 -168 143 -218 247 -69 142
-90 241 -90 428 0 126 4 171 22 245 79 316 291 491 617 507 80 5 221 -9 283
-27z"/>
<path d="M9982 5423 l4 -678 26 -95 c48 -175 109 -281 221 -386 70 -66 123
-99 220 -138 122 -48 199 -61 382 -60 200 0 296 19 435 87 158 77 286 233 349
427 48 144 51 203 51 883 l0 637 -149 0 -150 0 -4 -647 c-4 -718 -4 -719 -71
-858 -79 -165 -244 -254 -472 -255 -220 0 -384 96 -468 274 -70 148 -69 131
-73 844 l-5 642 -149 0 -150 0 3 -677z"/>
<path d="M12080 5105 l0 -995 145 0 145 0 0 419 0 420 56 7 c94 11 492 -2 552
-19 84 -24 135 -59 164 -114 35 -65 47 -136 57 -346 8 -171 10 -180 40 -242
18 -36 48 -78 69 -95 80 -66 209 -78 307 -30 l50 25 3 92 3 93 -26 -10 c-35
-13 -91 -13 -117 1 -37 20 -57 89 -78 267 -24 206 -44 267 -109 332 -46 46
-115 79 -170 81 -14 0 3 6 39 13 175 31 295 151 347 346 23 85 23 270 0 357
-56 214 -221 333 -518 377 -84 13 -197 16 -533 16 l-426 0 0 -995z m994 731
c171 -39 238 -130 240 -326 1 -116 -14 -169 -61 -221 -86 -95 -158 -109 -565
-116 l-318 -5 0 347 0 347 318 -5 c238 -4 334 -9 386 -21z"/>
<path d="M4195 6078 c-11 -7 -379 -294 -818 -640 l-798 -628 -378 354 c-207
194 -387 359 -401 366 -30 16 -74 15 -99 -2 -56 -39 -446 -417 -456 -442 -27
-63 18 -125 91 -126 38 0 48 7 228 176 186 175 187 176 209 157 11 -10 294
-272 627 -582 333 -310 615 -573 628 -584 l22 -20 -1 134 -1 134 -160 149
c-153 143 -158 150 -141 167 10 9 348 277 752 594 l734 577 22 -24 c13 -12
393 -423 844 -913 452 -489 836 -898 853 -908 42 -22 75 -15 111 24 43 47 38
89 -21 152 -27 29 -429 464 -895 968 -465 504 -853 919 -862 923 -26 9 -68 7
-90 -6z"/>
<path d="M5296 5639 c-92 -88 -121 -134 -111 -178 11 -52 75 -87 125 -69 37
13 188 168 200 204 20 59 -30 124 -97 124 -28 0 -46 -12 -117 -81z"/>
<path d="M6199 5689 c-22 -24 -29 -41 -29 -71 0 -38 6 -47 93 -133 100 -100
129 -114 183 -89 35 17 54 50 54 96 0 25 -15 46 -82 115 -121 123 -165 140
-219 82z"/>
<path d="M5825 5542 c-68 -14 -89 -69 -83 -218 2 -75 8 -107 21 -128 35 -53
103 -57 152 -8 26 26 26 26 23 163 -3 128 -5 139 -26 162 -25 26 -53 36 -87
29z"/>
<path d="M1578 4833 c-92 -81 -515 -477 -550 -515 -47 -50 -50 -92 -12 -137
22 -26 33 -31 70 -31 43 0 48 4 196 142 328 305 461 433 467 451 22 59 -27
127 -90 127 -31 0 -48 -8 -81 -37z"/>
<path d="M3290 4722 c-19 -19 -30 -44 -35 -73 -3 -24 -5 -195 -3 -379 3 -365
4 -368 61 -391 16 -7 44 -12 62 -11 34 1 899 118 948 128 l27 6 0 -162 0 -162
-22 8 c-26 10 -3764 18 -3816 9 -42 -8 -100 -59 -123 -110 -17 -37 -19 -81
-19 -632 l0 -593 391 0 391 0 29 -29 c31 -32 39 -84 18 -123 -24 -45 -55 -48
-454 -48 l-376 0 3 -492 c3 -484 3 -494 25 -533 30 -56 89 -110 153 -139 51
-24 66 -26 203 -26 l149 0 28 30 c23 25 28 41 34 110 4 44 16 113 27 153 66
236 268 425 517 483 100 24 283 14 380 -20 264 -92 443 -326 467 -610 4 -39
12 -82 18 -94 25 -52 26 -52 587 -52 338 0 528 4 541 10 30 17 46 59 53 144
22 249 164 455 391 566 103 51 187 70 306 70 268 0 499 -140 617 -376 43 -87
61 -149 76 -265 12 -94 16 -105 42 -126 28 -22 34 -23 262 -23 l234 0 29 31
29 31 0 564 0 564 -1975 0 c-1455 0 -1981 3 -1999 11 -25 12 -56 63 -56 94 0
28 28 71 55 83 20 9 491 12 2001 12 l1975 0 -6 53 c-38 327 -169 605 -394 839
-152 159 -333 281 -522 352 l-64 24 -5 430 -5 430 -24 26 c-13 14 -32 28 -41
31 -31 10 -1115 205 -1138 205 -13 0 -36 -13 -52 -28z m1061 -1242 c244 -50
446 -158 624 -335 139 -138 260 -338 313 -517 l20 -68 -679 0 -679 0 0 477 0
476 151 -6 c85 -4 194 -16 250 -27z m-2820 -208 l29 -32 0 -306 c0 -190 -4
-313 -10 -325 -25 -46 -48 -49 -394 -49 l-326 0 -32 29 -33 29 -3 295 c-3 246
-1 301 12 331 27 64 39 66 404 63 l324 -2 29 -33z m969 25 c14 -7 33 -28 43
-47 16 -32 17 -64 15 -333 l-3 -299 -33 -29 -32 -29 -333 0 c-360 0 -357 0
-386 57 -16 31 -15 606 0 636 13 24 32 38 64 49 11 3 160 6 330 7 229 0 317
-3 335 -12z m989 2 c58 -21 61 -36 61 -369 0 -188 -4 -309 -10 -321 -25 -46
-49 -49 -393 -49 -312 0 -325 1 -350 20 -15 12 -31 38 -37 58 -14 53 -12 557
3 602 23 67 41 70 388 70 198 0 317 -4 338 -11z"/>
<path d="M822 4693 c-21 -4 -280 -237 -404 -363 -58 -59 -64 -100 -22 -149 28
-34 75 -42 117 -19 21 11 309 276 390 359 47 49 51 94 10 138 -30 32 -54 41
-91 34z"/>
<path d="M7650 3015 l0 -125 310 0 310 0 0 -875 0 -875 145 0 145 0 0 875 0
875 305 0 305 0 0 125 0 125 -760 0 -760 0 0 -125z"/>
<path d="M9490 2140 l0 -1001 148 3 147 3 3 423 2 424 288 -4 c266 -3 291 -5
346 -26 58 -21 116 -66 138 -107 26 -47 39 -133 48 -310 10 -211 23 -268 80
-337 74 -90 231 -121 336 -67 l49 25 3 93 c2 79 0 93 -12 88 -73 -28 -132 -11
-159 45 -17 36 -32 117 -42 218 -15 166 -44 262 -101 329 -31 37 -114 81 -154
81 -34 1 -8 15 45 25 22 3 66 20 97 37 113 60 192 176 224 329 22 101 14 280
-15 369 -52 162 -206 280 -423 324 -142 29 -259 36 -655 36 l-393 0 0 -1000z
m935 741 c152 -23 223 -64 270 -155 29 -57 30 -65 30 -185 0 -122 -1 -128 -31
-181 -36 -64 -88 -101 -179 -126 -49 -14 -118 -18 -392 -22 l-333 -4 0 348 0
347 288 -6 c158 -4 314 -11 347 -16z"/>
<path d="M11420 3015 l0 -125 135 0 135 0 0 -745 0 -745 -135 0 -135 0 0 -130
0 -130 415 0 415 0 0 130 0 130 -135 0 -135 0 0 745 0 745 135 0 135 0 0 125
0 125 -415 0 -415 0 0 -125z"/>
<path d="M12700 2141 l0 -1001 145 0 145 0 0 365 0 365 294 0 c325 0 424 11
531 57 174 76 282 203 332 387 22 85 22 288 -2 381 -55 219 -193 352 -430 417
-76 20 -105 22 -547 26 l-468 4 0 -1001z m915 735 c176 -49 265 -155 281 -335
22 -232 -86 -384 -311 -437 -44 -10 -132 -14 -327 -14 l-268 0 0 406 0 407
283 -6 c219 -4 295 -9 342 -21z"/>
<path d="M1530 1546 c-186 -52 -335 -225 -359 -417 -34 -270 152 -513 424
-552 210 -30 415 80 508 273 96 199 61 409 -92 560 -74 73 -139 112 -226 135
-70 18 -192 18 -255 1z"/>
<path d="M4119 1546 c-182 -51 -329 -219 -359 -410 -39 -250 121 -484 377
-551 305 -80 605 161 605 485 0 184 -96 344 -258 432 -101 55 -257 73 -365 44z"/>
</g>
</svg>
