<?xml version="1.0" encoding="UTF-8"?>
<svg version="1.1" xmlns="http://www.w3.org/2000/svg" width="2000" height="711">
<path d="M0 0 C0.54736816 0.4729248 1.09473633 0.94584961 1.65869141 1.43310547 C43.22575601 37.62921706 66.17948949 89.33215706 70 144 C70.34827932 151.70479336 70.34134106 159.41394999 70.3125 167.125 C70.31034485 168.16247375 70.3081897 169.19994751 70.30596924 170.26885986 C70.15378927 215.91493347 59.8349089 260.3519101 33 298 C32.58395508 298.58426758 32.16791016 299.16853516 31.73925781 299.77050781 C25.4764261 308.44708751 18.39333095 316.28510336 11 324 C9.93458984 325.12728516 9.93458984 325.12728516 8.84765625 326.27734375 C-33.11499779 369.61300896 -96.03140994 388.69813762 -154.3125 395.3125 C-155.3824118 395.43446747 -155.3824118 395.43446747 -156.47393799 395.55889893 C-174.08401934 397.53232399 -191.59674282 398.20815643 -209.3125 398.1875 C-210.27632599 398.18689575 -211.24015198 398.1862915 -212.23318481 398.18566895 C-290.21529362 398.05357097 -373.09656277 380.91224383 -430.50341797 324.46582031 C-431.75708931 323.23791775 -433.03410224 322.03390785 -434.31640625 320.8359375 C-473.48335807 283.64711456 -489.19278402 227.42571439 -490.85961914 175.0559082 C-491.97957578 125.94282541 -481.89189105 76.53393719 -453 36 C-452.58395508 35.41573242 -452.16791016 34.83146484 -451.73925781 34.22949219 C-445.47489429 25.55079031 -438.38742254 17.72417115 -431 10 C-430.36320312 9.32195312 -429.72640625 8.64390625 -429.0703125 7.9453125 C-383.20563618 -39.67494952 -310.96537767 -58.87452782 -247 -63 C-246.2570166 -63.05494629 -245.5140332 -63.10989258 -244.74853516 -63.16650391 C-160.59224938 -69.32960196 -65.7496661 -57.12735049 0 0 Z M-300 30 C-300.64694824 30.22768066 -301.29389648 30.45536133 -301.96044922 30.68994141 C-319.60978185 37.01325388 -335.56382842 46.07552037 -350 58 C-350.53093262 58.43844238 -351.06186523 58.87688477 -351.60888672 59.32861328 C-358.61346395 65.20684906 -364.48146185 71.72604114 -370 79 C-370.60457031 79.78890625 -371.20914063 80.5778125 -371.83203125 81.390625 C-387.59456348 102.88175246 -396.0528323 130.04432598 -396.203125 156.64453125 C-396.20882507 157.45379562 -396.21452515 158.26306 -396.22039795 159.09684753 C-396.22979274 160.80535602 -396.23635979 162.51388218 -396.24023438 164.22241211 C-396.24983132 166.76776203 -396.28086164 169.31226449 -396.3125 171.85742188 C-396.41029327 186.87082717 -394.85919254 201.75045665 -390.3125 216.125 C-389.93013184 217.35500732 -389.93013184 217.35500732 -389.54003906 218.60986328 C-383.46432612 237.42134486 -373.64289639 252.76701294 -360 267 C-359.25492188 267.80824219 -358.50984375 268.61648438 -357.7421875 269.44921875 C-325.85968841 302.96267076 -273.80504927 316.62320789 -228.86993408 318.06851196 C-222.89284392 318.21248222 -216.91613819 318.24608615 -210.9375 318.25 C-210.00858948 318.25067474 -209.07967896 318.25134949 -208.12261963 318.25204468 C-160.48956036 318.19729403 -109.0895818 309.08090323 -72 277 C-71.19433594 276.32710938 -70.38867188 275.65421875 -69.55859375 274.9609375 C-43.67717804 252.68428861 -29.72296253 221.40166072 -26.20068359 187.79711914 C-23.2635314 146.85922054 -28.81889798 105.6180789 -56.30517578 73.47363281 C-89.46100515 35.31157191 -137.99017943 19.87610235 -187.22338867 16.21386719 C-194.49944094 15.8018288 -201.77620286 15.7553719 -209.0625 15.75 C-209.89259583 15.74932526 -210.72269165 15.74865051 -211.57794189 15.74795532 C-241.80948775 15.78667567 -271.43176065 19.84107842 -300 30 Z " fill="#FFFFFF" transform="translate(526,153)"/>
<path d="M0 0 C154.44 0 308.88 0 468 0 C468 25.41 468 50.82 468 77 C405.96 77 343.92 77 280 77 C280 198.11 280 319.22 280 444 C249.64 444 219.28 444 188 444 C188 322.89 188 201.78 188 77 C125.96 77 63.92 77 0 77 C0 51.59 0 26.18 0 0 Z " fill="#FFFFFF" transform="translate(596,98)"/>
<path d="M0 0 C0.81163605 -0.00570007 1.62327209 -0.01140015 2.45950317 -0.01727295 C4.17220787 -0.02666685 5.88493018 -0.03323443 7.59765625 -0.03710938 C10.15398923 -0.04671965 12.70948325 -0.0777567 15.265625 -0.109375 C54.04168101 -0.35859862 89.56240056 14.13814184 117.3203125 41.203125 C118.08472656 41.8940625 118.84914063 42.585 119.63671875 43.296875 C143.14752494 65.16739239 157.23142165 99.85395734 158.59375 131.5703125 C159.26950221 157.15299754 152.85591373 180.90887282 140.3203125 203.203125 C139.99417969 203.78529785 139.66804688 204.3674707 139.33203125 204.96728516 C134.73902999 213.04392234 129.3968503 220.19415295 123.3203125 227.203125 C122.63453125 228.03457031 121.94875 228.86601562 121.2421875 229.72265625 C97.77862214 257.31407108 61.24113516 271.6606619 25.95629883 275.00463867 C3.18648725 276.71917575 -20.09594992 274.85742171 -41.6796875 267.203125 C-43.20142578 266.66751953 -43.20142578 266.66751953 -44.75390625 266.12109375 C-80.06556717 252.48780584 -106.23879131 225.33563238 -121.6796875 191.203125 C-136.29289654 156.42340122 -135.503423 118.56162102 -121.90893555 83.64477539 C-108.77198663 51.72765567 -83.79152236 26.22557256 -52.44775391 12.00976562 C-50.88055293 11.29476534 -49.33128165 10.5407502 -47.78515625 9.78125 C-33.26437008 3.05058517 -15.94130953 0.08969524 0 0 Z M-57.6796875 49.203125 C-58.58267578 49.99396484 -58.58267578 49.99396484 -59.50390625 50.80078125 C-78.98817872 68.5591741 -89.47678094 99.23899526 -90.88500977 124.95214844 C-90.98275607 128.93299779 -91.01477647 132.9090087 -90.9921875 136.890625 C-90.98970001 137.59377838 -90.98721252 138.29693176 -90.98464966 139.02139282 C-90.82237493 168.73958648 -82.72166118 195.9660177 -63.6796875 219.203125 C-62.98230469 220.06550781 -62.28492188 220.92789063 -61.56640625 221.81640625 C-46.5805343 239.43233982 -24.09118244 251.00485943 -1.17578125 253.921875 C27.98672571 256.26790908 55.29763896 248.56000225 77.80908203 229.51513672 C101.7693858 208.71341257 114.64779917 179.55486738 117.3203125 148.203125 C119.5012744 112.85889898 109.61800531 79.93489189 86.06640625 53.20703125 C70.35670944 35.816283 46.02713398 22.4323435 22.33862305 21.02612305 C-9.71077506 20.39897727 -33.93398602 26.53866387 -57.6796875 49.203125 Z " fill="#FFFFFF" transform="translate(1432.6796875,10.796875)"/>
<path d="M0 0 C18.99199305 16.10023248 29.04237441 40.33804146 32.04296875 64.63671875 C32.28134126 69.75883845 32.28865811 74.88461804 32.29296875 80.01171875 C32.29364349 80.72947479 32.29431824 81.44723083 32.29501343 82.18673706 C32.27891355 92.95544992 31.85348243 103.17978727 29.04296875 113.63671875 C28.54990234 115.49103516 28.54990234 115.49103516 28.046875 117.3828125 C21.2722962 139.91004511 8.22518449 158.75645266 -12.3671875 170.59765625 C-33.02407929 181.44080875 -57.98328649 184.69406092 -80.55078125 177.890625 C-94.5829949 172.72509681 -102.98077935 165.60505461 -111.95703125 153.63671875 C-112.28703125 191.91671875 -112.61703125 230.19671875 -112.95703125 269.63671875 C-124.83703125 269.63671875 -136.71703125 269.63671875 -148.95703125 269.63671875 C-148.95703125 175.58671875 -148.95703125 81.53671875 -148.95703125 -15.36328125 C-137.07703125 -15.36328125 -125.19703125 -15.36328125 -112.95703125 -15.36328125 C-112.46203125 -3.97828125 -112.46203125 -3.97828125 -111.95703125 7.63671875 C-109.97703125 4.99671875 -107.99703125 2.35671875 -105.95703125 -0.36328125 C-79.37628316 -30.01103874 -28.41005862 -23.1481412 0 0 Z M-91.95703125 14.63671875 C-92.54871094 15.04148437 -93.14039063 15.44625 -93.75 15.86328125 C-105.21266362 24.41437585 -110.55289836 39.09802502 -112.95703125 52.63671875 C-113.05346776 54.33584113 -113.10476823 56.03794193 -113.11816406 57.73974609 C-113.12777161 58.73203217 -113.13737915 59.72431824 -113.14727783 60.74667358 C-113.15152771 61.81124786 -113.15577759 62.87582214 -113.16015625 63.97265625 C-113.16585632 65.08420074 -113.1715564 66.19574524 -113.1774292 67.3409729 C-113.18686939 69.69621839 -113.19340928 72.05147703 -113.19726562 74.40673828 C-113.20690228 77.96411132 -113.23790698 81.52088915 -113.26953125 85.078125 C-113.43930584 107.23000493 -113.43930584 107.23000493 -106.26953125 127.94921875 C-105.92067871 128.61236084 -105.57182617 129.27550293 -105.21240234 129.95874023 C-98.42376068 142.48282387 -89.36230232 151.83211113 -75.421875 155.9765625 C-60.53120241 158.8136805 -45.97788341 156.57564455 -33.1640625 148.25390625 C-17.73343977 136.94721986 -11.33126307 118.38020028 -8.3984375 100.16796875 C-5.41754154 74.73663321 -6.64967846 44.99528276 -22.33203125 23.63671875 C-23.50585048 22.27290218 -24.71495951 20.93868074 -25.95703125 19.63671875 C-26.95669922 18.57710938 -26.95669922 18.57710938 -27.9765625 17.49609375 C-33.61346664 12.01153837 -39.56393327 9.16243825 -46.95703125 6.63671875 C-48.19453125 6.20359375 -49.43203125 5.77046875 -50.70703125 5.32421875 C-65.74666373 2.09696428 -79.80923454 5.34306457 -91.95703125 14.63671875 Z " fill="#FFFFFF" transform="translate(1900.95703125,430.36328125)"/>
<path d="M0 0 C12.21 0 24.42 0 37 0 C37.0093457 4.14788086 37.01869141 8.29576172 37.02832031 12.56933594 C37.06213379 26.29575122 37.11750776 40.02200915 37.18390274 53.74830246 C37.22362241 62.06804454 37.25605067 70.38769301 37.27099609 78.70751953 C37.28404944 85.96357312 37.3111074 93.2194201 37.35461307 100.47535729 C37.37714561 104.31330089 37.39291566 108.15099044 37.39188385 111.98900604 C37.39113233 115.61054137 37.40927741 119.2315169 37.44116783 122.85290718 C37.4535858 124.79717755 37.44664129 126.74154235 37.43885803 128.68583679 C37.57473867 140.26962435 40.27644589 151.07766808 48 160 C57.4610081 169.00463294 67.49113593 171.34478959 80.30078125 171.2109375 C91.35934985 170.58035386 100.37930548 166.85423617 108.75 159.625 C109.4925 158.75875 110.235 157.8925 111 157 C111.47953125 156.44957031 111.9590625 155.89914063 112.453125 155.33203125 C122.67528232 142.81246988 124.28886832 127.78567626 124.31884766 112.16308594 C124.32889328 110.9421373 124.3389389 109.72118866 124.34928894 108.46324158 C124.37465624 105.1561698 124.39164658 101.84926501 124.40471697 98.54213619 C124.42048245 95.07078765 124.44722888 91.59952293 124.4727478 88.12823486 C124.51930047 81.57317083 124.55615734 75.01809061 124.58942068 68.46294713 C124.62780955 60.99238396 124.67717503 53.52190548 124.72740483 46.05141401 C124.83037445 30.70099805 124.91829869 15.35054614 125 0 C136.88 0 148.76 0 161 0 C161 63.03 161 126.06 161 191 C149.12 191 137.24 191 125 191 C124.67 184.4 124.34 177.8 124 171 C122.948125 172.134375 121.89625 173.26875 120.8125 174.4375 C106.7602999 188.41534984 88.90033336 196.22906011 69.0625 196.3125 C51.10381631 196.08665196 34.99335249 192.87052193 21 181 C20.20851563 180.35546875 19.41703125 179.7109375 18.6015625 179.046875 C5.18356377 167.04852801 1.16910552 149.25998634 0 132 C-0.12950332 127.54396053 -0.12693952 123.09169447 -0.11352539 118.6340332 C-0.11367142 117.3449556 -0.11381744 116.05587799 -0.1139679 114.72773743 C-0.11425222 111.22848609 -0.10841502 107.72926976 -0.10139394 104.23002648 C-0.09509913 100.55986224 -0.09455179 96.889697 -0.09336853 93.2195282 C-0.09027315 86.28544048 -0.08208417 79.35136873 -0.07201904 72.41728801 C-0.06080191 64.51633902 -0.0553334 56.61538924 -0.05032361 48.71443427 C-0.03989987 32.47627872 -0.02157695 16.23814514 0 0 Z " fill="#FFFFFF" transform="translate(1635,90)"/>
<path d="M0 0 C78.87 0 157.74 0 239 0 C239 8.25 239 16.5 239 25 C206 25 173 25 139 25 C139 104.53 139 184.06 139 266 C126.13 266 113.26 266 100 266 C100 186.47 100 106.94 100 25 C67 25 34 25 0 25 C0 16.75 0 8.5 0 0 Z " fill="#FFFFFF" transform="translate(1289,341)"/>
<path d="M0 0 C3.07795016 2.51313044 5.64261264 4.61590491 6.89453125 8.484375 C5.83642578 11.23339844 5.83642578 11.23339844 4.02734375 14.34375 C3.38925781 15.45878906 2.75117187 16.57382812 2.09375 17.72265625 C1.40268749 18.89343213 0.7112767 20.0640025 0.01953125 21.234375 C-0.66553178 22.41972497 -1.34914414 23.60591462 -2.03125 24.79296875 C-3.70853979 27.69869614 -5.40027376 30.59496414 -7.10546875 33.484375 C-11.10546875 33.484375 -11.10546875 33.484375 -12.7109375 31.9453125 C-13.23300781 31.25695312 -13.75507812 30.56859375 -14.29296875 29.859375 C-18.87359823 24.2894087 -25.01791936 19.00074857 -32.453125 18.24609375 C-41.7399189 17.99221018 -49.62372534 20.21000117 -56.515625 26.6640625 C-67.83188062 39.62075812 -70.39309852 55.80112647 -70.42431641 72.39135742 C-70.43938484 74.25182205 -70.43938484 74.25182205 -70.45475769 76.14987183 C-70.48015755 79.51485171 -70.49712847 82.87966682 -70.51018572 86.24470305 C-70.52593189 89.77478056 -70.55268476 93.30477524 -70.57821655 96.83479309 C-70.62480274 103.50322195 -70.66164366 110.17166675 -70.69488943 116.84017402 C-70.73325425 124.438885 -70.78262624 132.03751238 -70.83287358 139.63615263 C-70.9358932 155.25217213 -71.02379746 170.86822703 -71.10546875 186.484375 C-83.31546875 186.484375 -95.52546875 186.484375 -108.10546875 186.484375 C-108.10546875 123.124375 -108.10546875 59.764375 -108.10546875 -5.515625 C-95.89546875 -5.515625 -83.68546875 -5.515625 -71.10546875 -5.515625 C-70.61046875 5.869375 -70.61046875 5.869375 -70.10546875 17.484375 C-69.11546875 15.834375 -68.12546875 14.184375 -67.10546875 12.484375 C-59.93017674 1.32758363 -51.13093943 -5.93157713 -37.91796875 -8.890625 C-24.40215034 -10.9749404 -11.1940496 -8.05805426 0 0 Z " fill="#FFFFFF" transform="translate(1601.10546875,420.515625)"/>
<path d="M0 0 C4.2902223 2.90848072 6.43478552 5.95516644 10.0625 10.1875 C5.4425 18.7675 0.8225 27.3475 -3.9375 36.1875 C-4.9275 36.1875 -5.9175 36.1875 -6.9375 36.1875 C-8.4453125 34.6484375 -8.4453125 34.6484375 -10.0625 32.5625 C-15.31751467 26.30969773 -21.72428597 21.50748083 -29.9375 20.1875 C-39.45366183 20.06459754 -47.31444082 23.84427986 -54.16015625 30.296875 C-65.32466564 42.17296851 -67.06521909 59.00187669 -67.14282227 74.54858398 C-67.15272186 75.77855606 -67.16262146 77.00852814 -67.17282104 78.27577209 C-67.19890351 81.63061718 -67.22080853 84.9854398 -67.24082303 88.34032321 C-67.26277805 91.85305183 -67.29011992 95.36573852 -67.31687927 98.87843323 C-67.36667808 105.52221257 -67.41166411 112.16601534 -67.45490164 118.80984026 C-67.50438392 126.37699633 -67.55926109 133.9441103 -67.61458123 141.51122558 C-67.72820445 157.06994622 -67.83437379 172.6287057 -67.9375 188.1875 C-79.8175 188.1875 -91.6975 188.1875 -103.9375 188.1875 C-103.9375 125.1575 -103.9375 62.1275 -103.9375 -2.8125 C-92.0575 -2.8125 -80.1775 -2.8125 -67.9375 -2.8125 C-67.4425 8.5725 -67.4425 8.5725 -66.9375 20.1875 C-65.865 18.475625 -64.7925 16.76375 -63.6875 15 C-57.071588 4.43998661 -49.42504661 -2.54781994 -37.26953125 -6.15234375 C-24.353446 -8.71133368 -11.2882921 -7.01755492 0 0 Z " fill="#FFFFFF" transform="translate(1956.9375,92.8125)"/>
<path d="M0 0 C12.21 0 24.42 0 37 0 C37 63.36 37 126.72 37 192 C24.79 192 12.58 192 0 192 C0 128.64 0 65.28 0 0 Z " fill="#FFFFFF" transform="translate(1648,415)"/>
<path d="M0 0 C5.9228754 2.98236659 9.58057383 7.3591486 12.125 13.4375 C14.27683325 20.16358955 13.39623796 25.60795353 10.6484375 32 C7.74527661 37.06025809 3.53466494 40.29516753 -1.625 42.875 C-9.38966149 44.27263907 -15.45116101 44.00007056 -22.48046875 40.13671875 C-27.11827878 36.66434807 -29.93738251 31.87535246 -31.75 26.4375 C-32.67559599 18.49059731 -31.66517922 11.90067819 -26.75 5.4375 C-18.86210099 -1.35907848 -9.95680812 -3.94897136 0 0 Z " fill="#FFFFFF" transform="translate(1675.75,337.5625)"/>
</svg>
